#!OML:ASF \\sashay\E\basketball\basketball\Project 1\Capture day 1\Session 1\Subject.ASF
:FULLY-SPECIFIED
:DEGREES
97
root -18.2063 13.7353 0.425109 -18.1462 -67.1841 22.5413
lowerback 33.0415 -1.10653 -1.27497
upperback 11.4598 -2.93425 -2.88585
thorax -5.00754 -1.744 -1.418
lowerneck -15.4776 4.19951 -5.11137
upperneck -6.77141 6.21054 5.21622
head 0.116198 3.20375 2.8619
rclavicle -6.65929e-015 2.79292e-014
rhumerus -2.61296 -38.2705 -37.2713
rradius 77.0667
rwrist -23.6878
rhand -38.1337 51.52
rfingers 7.12502
rthumb -11.1682 21.8372
lclavicle -6.65929e-015 2.79292e-014
lhumerus -38.1362 9.6665 87.6091
lradius 74.0568
lwrist 13.9
lhand -35.4544 9.92446
lfingers 7.12502
lthumb -8.58333 39.73
rfemur -56.8212 -22.2542 14.454
rtibia 73.2416
rfoot -13.2346 -11.3126
rtoes -26.9557
lfemur -18.7313 18.9669 7.57739
ltibia 54.1901
lfoot -0.781222 9.86673
ltoes -2.71945
98
root -18.0381 13.6759 0.660453 -17.5428 -67.5782 21.244
lowerback 33.6535 -1.28408 -0.775153
upperback 11.184 -3.02111 -2.86279
thorax -4.99338 -1.77385 -1.53064
lowerneck -14.8943 4.6242 -4.40255
upperneck -7.06632 6.64914 4.60501
head -0.0616625 3.39245 2.51441
rclavicle 3.97569e-015 -6.08281e-014
rhumerus -2.95272 -38.4992 -38.4942
rradius 77.2197
rwrist -24.1491
rhand -38.5216 52.6469
rfingers 7.12502
rthumb -11.5423 22.9848
lclavicle 3.97569e-015 -6.08281e-014
lhumerus -38.1777 9.72114 88.0715
lradius 74.8466
lwrist 15.3463
lhand -35.2996 10.2628
lfingers 7.12502
lthumb -8.43387 40.0744
rfemur -56.4026 -22.3789 13.747
rtibia 73.0058
rfoot -12.7198 -10.9436
rtoes -28.9832
lfemur -16.3188 18.2734 9.18376
ltibia 51.6308
lfoot 0.633392 9.27626
ltoes -9.16542
99
root -17.8578 13.6234 0.884742 -16.5815 -67.8649 19.8608
lowerback 33.9029 -1.42565 -0.400349
upperback 11.0872 -3.06892 -2.68142
thorax -5.19541 -1.79355 -1.5136
lowerneck -15.2535 4.74589 -4.85035
upperneck -6.43875 6.8889 5.11999
head 0.15956 3.53895 2.80586
rclavicle 1.0635e-014 -5.46658e-016
rhumerus -3.75625 -38.521 -39.3696
rradius 77.5831
rwrist -24.843
rhand -38.7192 53.2876
rfingers 7.12502
rthumb -11.7328 23.6362
lclavicle 1.0635e-014 -5.46658e-016
lhumerus -38.3753 8.74142 88.4757
lradius 75.5164
lwrist 16.628
lhand -34.7225 10.8544
lfingers 7.12502
lthumb -7.87696 40.6877
rfemur -56.2772 -22.4587 13.2681
rtibia 72.4867
rfoot -11.7804 -10.8895
rtoes -30.8474
lfemur -14.441 17.2561 10.3715
ltibia 49.0789
lfoot 2.35285 8.63877
ltoes -12.531
100
root -17.6698 13.5907 1.0965 -16.4437 -67.9419 19.6088
lowerback 33.5049 -1.38527 -0.472159
upperback 11.2639 -3.02729 -2.53061
thorax -4.84474 -1.78475 -1.34844
lowerneck -14.9463 4.73122 -5.14859
upperneck -6.5175 6.91455 5.39125
head 0.0624482 3.55998 2.93955
rclavicle 1.10325e-014 -1.78906e-015
rhumerus -4.65282 -38.8649 -40.1513
rradius 77.9711
rwrist -25.5791
rhand -38.892 53.3623
rfingers 7.12502
rthumb -11.8995 23.7204
lclavicle 1.10325e-014 -1.78906e-015
lhumerus -37.986 7.4498 88.968
lradius 75.862
lwrist 16.8377
lhand -33.7934 11.1134
lfingers 7.12502
lthumb -6.9801 40.9784
rfemur -56.2949 -22.3211 12.2721
rtibia 71.6818
rfoot -10.4459 -10.8845
rtoes -32.3132
lfemur -12.9839 15.9921 10.5972
ltibia 46.5403
lfoot 4.4523 7.7412
ltoes -16.1813
101
root -17.4773 13.5868 1.30662 -16.524 -67.9757 19.7359
lowerback 33.0838 -1.30857 -0.845662
upperback 11.4895 -3.01453 -2.27446
thorax -4.97828 -1.79486 -0.950597
lowerneck -14.4886 4.69428 -5.14364
upperneck -6.35686 6.85319 5.36848
head 0.0440031 3.52747 2.91467
rclavicle 1.63003e-014 -3.97569e-015
rhumerus -5.76284 -38.6083 -40.6756
rradius 78.2448
rwrist -26.5271
rhand -39.0685 53.517
rfingers 7.12502
rthumb -12.0697 23.8851
lclavicle 1.63003e-014 -3.97569e-015
lhumerus -37.8916 6.16925 89.3546
lradius 75.9652
lwrist 16.2647
lhand -32.734 10.1629
lfingers 7.12502
lthumb -5.95743 40.0591
rfemur -56.1959 -21.8735 10.9758
rtibia 70.6285
rfoot -9.1162 -10.7723
rtoes -32.8448
lfemur -11.833 14.5058 10.261
ltibia 44.2953
lfoot 5.2228 6.50037
ltoes -25.529
102
root -17.2751 13.596 1.52436 -16.4725 -68.0227 19.7988
lowerback 32.9981 -1.23571 -1.12706
upperback 11.3923 -2.97952 -2.04925
thorax -5.02638 -1.78351 -0.5488
lowerneck -14.4842 4.89146 -4.57062
upperneck -6.01457 7.02092 4.73232
head 0.185732 3.59389 2.60922
rclavicle -2.18663e-014 -1.27222e-014
rhumerus -6.83618 -38.3489 -41.2008
rradius 78.4697
rwrist -27.5482
rhand -39.1493 53.7444
rfingers 7.12502
rthumb -12.1476 24.1171
lclavicle -2.18663e-014 -1.27222e-014
lhumerus -37.6551 4.72628 89.5356
lradius 76.0387
lwrist 15.0376
lhand -31.208 9.41502
lfingers 7.12502
lthumb -4.48399 39.3476
rfemur -56.0024 -21.3366 9.64606
rtibia 69.3825
rfoot -7.81708 -10.4546
rtoes -33.1407
lfemur -10.9902 12.847 9.71007
ltibia 42.5342
lfoot 2.33863 6.70192
ltoes -27.5398
103
root -17.0595 13.5852 1.74894 -17.4633 -68.0216 20.9808
lowerback 32.917 -1.07621 -1.73731
upperback 11.3357 -2.95162 -1.94976
thorax -5.0218 -1.78089 -0.0971027
lowerneck -15.5685 4.692 -5.37754
upperneck -4.79271 6.89708 5.43855
head 0.729849 3.57608 3.06755
rclavicle 1.81888e-014 -4.31363e-014
rhumerus -7.81766 -38.0351 -41.7417
rradius 78.681
rwrist -28.4864
rhand -39.2036 53.6838
rfingers 7.12502
rthumb -12.2 24.0596
lclavicle 1.81888e-014 -4.31363e-014
lhumerus -37.4507 3.13574 89.5354
lradius 76.3238
lwrist 13.0299
lhand -29.498 9.43789
lfingers 7.12502
lthumb -2.8327 39.3988
rfemur -55.9236 -20.7694 7.8171
rtibia 68.0853
rfoot -6.39154 -9.98415
rtoes -33.1134
lfemur -10.0817 12.6246 8.40185
ltibia 41.6258
lfoot -0.371126 5.49996
ltoes -43.8317
